<svg width="29" height="31" fill="none" xmlns="http://www.w3.org/2000/svg"><path d="M.71 3.58L.708 15.359C.709 19.46.7 23.56.718 27.66c.002.56.06 1.135.2 1.675.312 1.204 1.326 1.746 2.513 1.353.491-.162.956-.42 1.41-.675a6401.341 6401.341 0 0016.287-9.174 333.914 333.914 0 005.65-3.286c2.212-1.309 2.188-3.03-.045-4.354a20.8 20.8 0 00-.339-.198L5.16.939C1.98-.866.71-.112.71 3.581z" fill="#ECECEC"/><path d="M1.725 1.767v26.928l13.5-13.403-13.5-13.525zM2.944.727l-.05.18 13.328 13.298c1.194-1.18 2.49-2.458 3.84-3.79L2.944.727zm17.118 19.636l-3.784-3.785L2.917 29.904l.046.15c5.715-3.24 11.431-6.479 17.1-9.691zM16.91 15.13l4.499 4.466c1.65-.941 3.45-1.923 5.202-2.982 1.178-.712 1.242-1.652.136-2.344-1.662-1.039-3.385-1.983-5.107-2.92-.219-.118-.696-.064-.878.103-1.345 1.232-2.645 2.514-3.852 3.677z" fill="#202020"/></svg>